Coordinates
version=1
nRows=10
nColumns=46
inDegrees=yes

Units are S.I. units (second, meters, Newtons, ...)
Angles are in degrees.

endheader
time	pelvis_tilt	pelvis_list	pelvis_rotation	pelvis_tx	pelvis_ty	pelvis_tz	bb_angle	bb_tx	bb_ty	bb_tz	hip_flexion_r	hip_adduction_r	hip_rotation_r	knee_angle_r	knee_angle_r_beta	ankle_angle_r	subtalar_angle_r	mtp_angle_r	crank_angle_r	hip_flexion_l	hip_adduction_l	hip_rotation_l	knee_angle_l	knee_angle_l_beta	ankle_angle_l	subtalar_angle_l	mtp_angle_l	crank_angle_l	lumbar_extension	lumbar_bending	lumbar_rotation	arm_flex_r	arm_add_r	arm_rot_r	elbow_flex_r	pro_sup_r	wrist_flex_r	wrist_dev_r	arm_flex_l	arm_add_l	arm_rot_l	elbow_flex_l	pro_sup_l	wrist_flex_l	wrist_dev_l
      0.00500000	    -15.86653310	     -1.67038119	     -0.46733785	      0.11967518	      1.13938321	     -0.23927315	      0.00000000	      0.50000000	      0.00000000	      0.25000000	     72.42499870	     -8.29794481	     -5.93757025	    101.86064725	      1.77780367	      5.82964718	     -6.27361690	      0.00000000	      0.00000000	     66.04865528	     -6.75823492	      0.61087686	     57.70785822	      1.00719213	     -2.88103565	     -2.39142157	      0.00000000	      0.00000000	    -54.55332903	      0.75574599	      3.56626095	     89.83170292	      1.05241577	     19.16732992	     35.52887970	     18.51058271	      0.00000000	      0.00000000	     89.80617426	      4.69156106	     20.76721325	     35.92501967	     18.05509443	      0.00000000	      0.00000000
      0.01000000	    -15.86797672	     -1.66863311	     -0.46895789	      0.11958342	      1.13933580	     -0.23927379	      0.00000000	      0.50000000	      0.00000000	      0.25000000	     72.41413294	     -8.30032944	     -5.94618699	    101.83485201	      1.77735346	      5.83550607	     -6.27931718	      0.00000000	      0.00000000	     66.08194823	     -6.75406566	      0.62148554	     57.74314742	      1.00780804	     -2.88251153	     -2.43455759	      0.00000000	      0.00000000	    -54.54126021	      0.75612709	      3.58982839	     89.83228725	      0.96194202	     19.30919566	     34.78734347	     22.31978506	      0.00000000	      0.00000000	     89.80783754	      4.55198398	     21.20080853	     35.12226817	     22.12013975	      0.00000000	      0.00000000
      0.01500000	    -15.88285867	     -1.67559509	     -0.48698426	      0.11953700	      1.13930889	     -0.23922506	      0.00000000	      0.50000000	      0.00000000	      0.25000000	     72.40391556	     -8.27344865	     -5.94498852	    101.80837479	      1.77689135	      5.85003883	     -6.23544902	      0.00000000	      0.00000000	     66.13713374	     -6.77783645	      0.62630044	     57.79336543	      1.00868451	     -2.86791940	     -2.43070432	      0.00000000	      0.00000000	    -54.55091261	      0.75388838	      3.57819526	     89.83120141	      1.48704633	     17.33013080	     34.16504984	     26.19526424	      0.00000000	      0.00000000	     89.80706547	      4.88728674	     19.59472348	     34.45496853	     26.14892934	      0.00000000	      0.00000000
      0.02000000	    -15.78654719	     -1.72466879	     -0.41659813	      0.11943888	      1.13951885	     -0.23943042	      0.00000000	      0.50000000	      0.00000000	      0.25000000	     72.25751610	     -8.35093706	     -6.03751514	    101.76919994	      1.77620762	      5.82198148	     -6.27339438	      0.00000000	      0.00000000	     66.07301976	     -6.72204362	      0.72357896	     57.80403962	      1.00887081	     -2.89677817	     -2.46551173	      0.00000000	      0.00000000	    -54.70881345	      0.83469121	      3.62793440	     89.83145627	      1.40163444	     17.25627413	     34.35197222	     26.31719686	      0.00000000	      0.00000000	     89.80788763	      4.94999274	     19.50877528	     34.59628457	     26.25972446	      0.00000000	      0.00000000
      0.02500000	    -15.76636217	     -1.68113757	     -0.44928431	      0.11945331	      1.13953383	     -0.23925139	      0.00000000	      0.50000000	      0.00000000	      0.25000000	     72.22421679	     -8.31663113	     -5.98547519	    101.73881022	      1.77567722	      5.82558634	     -6.34269749	      0.00000000	      0.00000000	     66.07211161	     -6.78125907	      0.59727481	     57.84192831	      1.00953209	     -2.82994385	     -2.38256093	      0.00000000	      0.00000000	    -54.75965487	      0.76777305	      3.62819111	     89.83072253	      1.33755077	     17.23941818	     34.43454744	     26.59367643	      0.00000000	      0.00000000	     89.80817662	      4.92181933	     19.38458347	     34.72505489	     26.53480968	      0.00000000	      0.00000000
      0.03000000	    -15.81318735	     -1.67864701	     -0.46494843	      0.11935712	      1.13935627	     -0.23918867	      0.00000000	      0.50000000	      0.00000000	      0.25000000	     72.27059915	     -8.28657132	     -5.97043793	    101.72203295	      1.77538440	      5.80533028	     -6.32913390	      0.00000000	      0.00000000	     66.16833633	     -6.79500810	      0.61211864	     57.89583639	      1.01047297	     -2.80911577	     -2.30150101	      0.00000000	      0.00000000	    -54.65683797	      0.71901266	      3.60475503	     89.83176735	      0.91525919	     19.13060700	     35.76217046	     18.37734261	      0.00000000	      0.00000000	     89.80780556	      4.75575873	     20.57195103	     36.15764983	     17.95502446	      0.00000000	      0.00000000
      0.03500000	    -15.82326196	     -1.68037781	     -0.46820599	      0.11925561	      1.13926972	     -0.23919640	      0.00000000	      0.50000000	      0.00000000	      0.25000000	     72.27047030	     -8.27754815	     -5.96969815	    101.70725914	      1.77512655	      5.81590303	     -6.31864898	      0.00000000	      0.00000000	     66.23187072	     -6.79534496	      0.65856494	     57.96831829	      1.01173802	     -2.81300998	     -2.24712907	      0.00000000	      0.00000000	    -54.64729214	      0.72649890	      3.60658465	     89.83133406	      1.06909006	     18.57907842	     35.49109543	     19.80513764	      0.00000000	      0.00000000	     89.80804640	      4.83301884	     20.21338055	     35.87187184	     19.41432075	      0.00000000	      0.00000000
      0.04000000	    -15.79852600	     -1.67493970	     -0.46449592	      0.11922986	      1.13934794	     -0.23918681	      0.00000000	      0.50000000	      0.00000000	      0.25000000	     72.21084378	     -8.28238072	     -5.97440070	    101.66783255	      1.77443842	      5.82372383	     -6.33720327	      0.00000000	      0.00000000	     66.22215105	     -6.79505833	      0.61567291	     57.97742837	      1.01189702	     -2.78624655	     -2.32441314	      0.00000000	      0.00000000	    -54.66534827	      0.72227195	      3.60291730	     89.83238681	      0.85774115	     19.23753195	     35.13501858	     21.50959867	      0.00000000	      0.00000000	     89.80881422	      4.62019580	     20.94440940	     35.51130030	     21.20757991	      0.00000000	      0.00000000
      0.04500000	    -15.82312958	     -1.68179777	     -0.47098833	      0.11912622	      1.13926692	     -0.23917947	      0.00000000	      0.50000000	      0.00000000	      0.25000000	     72.22138663	     -8.26919980	     -5.97991502	    101.63791302	      1.77391623	      5.81493250	     -6.30904838	      0.00000000	      0.00000000	     66.29832090	     -6.80764246	      0.65590007	     58.04064139	      1.01300029	     -2.77510367	     -2.21170605	      0.00000000	      0.00000000	    -54.64248939	      0.73133770	      3.60447267	     89.83247791	      1.05780433	     18.69680064	     34.96602783	     22.36661329	      0.00000000	      0.00000000	     89.80798261	      4.76515131	     20.37416318	     35.38034739	     22.07723355	      0.00000000	      0.00000000
      0.05000000	    -15.78962665	     -1.70682838	     -0.44693162	      0.11908102	      1.13931331	     -0.23925872	      0.00000000	      0.50000000	      0.00000000	      0.25000000	     72.13849648	     -8.28743230	     -6.01969979	    101.59828507	      1.77322459	      5.88287322	     -6.35888658	      0.00000000	      0.00000000	     66.30934838	     -6.80461775	      0.66304945	     58.08640306	      1.01379898	     -2.83087244	     -2.30983585	      0.00000000	      0.00000000	    -54.68004431	      0.76529551	      3.63911755	     89.83294871	      0.81825242	     19.26885231	     34.78309823	     23.74198329	      0.00000000	      0.00000000	     89.80979716	      4.62089860	     20.85015158	     35.10605226	     23.54899987	      0.00000000	      0.00000000
